/vscmnt/brussel_pixiu_data/_data_brussel/112/vsc11236/PredSimResults/SUBJ10_Dhondt2024_3seg/weighted/worker_05.mot
version=1
nRows=4
nColumns=124
inDegrees=yes
endheader
                time	         pelvis_tilt	         pelvis_list	     pelvis_rotation	           pelvis_tx	           pelvis_ty	           pelvis_tz	       hip_flexion_r	     hip_adduction_r	      hip_rotation_r	        knee_angle_r	       ankle_angle_r	    subtalar_angle_r	         mtp_angle_r	       hip_flexion_l	     hip_adduction_l	      hip_rotation_l	        knee_angle_l	       ankle_angle_l	    subtalar_angle_l	         mtp_angle_l	    lumbar_extension	      lumbar_bending	     lumbar_rotation	          arm_flex_r	           arm_add_r	           arm_rot_r	        elbow_flex_r	          arm_flex_l	           arm_add_l	           arm_rot_l	        elbow_flex_l	glut_med1_r/activation	glut_med2_r/activation	glut_med3_r/activation	glut_min1_r/activation	glut_min2_r/activation	glut_min3_r/activation	semimem_r/activation	semiten_r/activation	bifemlh_r/activation	bifemsh_r/activation	    sar_r/activation	add_long_r/activation	add_brev_r/activation	add_mag1_r/activation	add_mag2_r/activation	add_mag3_r/activation	    tfl_r/activation	   pect_r/activation	   grac_r/activation	glut_max1_r/activation	glut_max2_r/activation	glut_max3_r/activation	iliacus_r/activation	  psoas_r/activation	quad_fem_r/activation	    gem_r/activation	   peri_r/activation	rect_fem_r/activation	vas_med_r/activation	vas_int_r/activation	vas_lat_r/activation	med_gas_r/activation	lat_gas_r/activation	 soleus_r/activation	tib_post_r/activation	flex_dig_r/activation	flex_hal_r/activation	tib_ant_r/activation	per_brev_r/activation	per_long_r/activation	per_tert_r/activation	ext_dig_r/activation	ext_hal_r/activation	glut_med1_l/activation	glut_med2_l/activation	glut_med3_l/activation	glut_min1_l/activation	glut_min2_l/activation	glut_min3_l/activation	semimem_l/activation	semiten_l/activation	bifemlh_l/activation	bifemsh_l/activation	    sar_l/activation	add_long_l/activation	add_brev_l/activation	add_mag1_l/activation	add_mag2_l/activation	add_mag3_l/activation	    tfl_l/activation	   pect_l/activation	   grac_l/activation	glut_max1_l/activation	glut_max2_l/activation	glut_max3_l/activation	iliacus_l/activation	  psoas_l/activation	quad_fem_l/activation	    gem_l/activation	   peri_l/activation	rect_fem_l/activation	vas_med_l/activation	vas_int_l/activation	vas_lat_l/activation	med_gas_l/activation	lat_gas_l/activation	 soleus_l/activation	tib_post_l/activation	flex_dig_l/activation	flex_hal_l/activation	tib_ant_l/activation	per_brev_l/activation	per_long_l/activation	per_tert_l/activation	ext_dig_l/activation	ext_hal_l/activation	 ercspn_r/activation	 ercspn_l/activation	 intobl_r/activation	 intobl_l/activation	 extobl_r/activation	 extobl_l/activation	
          0.55469795	         -2.91553962	          0.04375077	         -2.55862218	          0.59907378	          0.81982076	          0.00183841	        -17.02946957	          2.25124405	         10.40097941	         -5.32254615	          6.09215559	         10.58706154	         13.77013984	         29.35220995	          2.77822347	          4.50530841	        -12.80815523	          7.13498790	         -2.38189592	          0.23729551	         -5.40749494	          0.76882443	          1.44299366	         29.02654719	        -13.45079866	         15.72985638	         53.82315072	        -30.89706107	        -14.12418725	          4.25787640	         25.16391194	          0.21329644	          0.09560391	          0.05489954	          0.27402758	          0.22051981	          0.13809656	          0.01182380	          0.01001717	          0.01184707	          0.03130525	          0.09070040	          0.01000051	          0.01000044	          0.01000111	          0.01000447	          0.01000353	          0.33641922	          0.01000161	          0.01000233	          0.01843647	          0.01662434	          0.01005675	          0.21319504	          0.37952379	          0.01663556	          0.01663840	          0.05455918	          0.21502592	          0.01000095	          0.01000122	          0.01000100	          0.33048063	          0.36953816	          0.28234875	          0.24725869	          0.31856291	          0.38080966	          0.01339435	          0.02264742	          0.18048404	          0.01378043	          0.01316293	          0.01373809	          0.02108290	          0.01403674	          0.01000137	          0.01404017	          0.01403829	          0.01000545	          0.09051199	          0.01185270	          0.07311813	          0.01000143	          0.01860658	          0.09892626	          0.16551113	          0.11188619	          0.14422719	          0.10467350	          0.01000070	          0.02154169	          0.06648944	          0.01184910	          0.01184918	          0.06336934	          0.02024542	          0.01963721	          0.01674722	          0.01000222	          0.01000078	          0.01000014	          0.07833627	          0.08010460	          0.06625452	          0.01004742	          0.01000254	          0.01184894	          0.01000059	          0.01000123	          0.01000267	          0.28931330	          0.21713898	          0.12905427	          0.09096339	          0.30133363	          0.02955398	          0.01000001	          0.01403984	          0.01000023	          0.02910004	          0.01000035	          0.09339957	
          0.56579190	         -2.90250094	          0.26180578	         -2.71309198	          0.61388117	          0.81925085	          0.00156470	        -17.03120546	          2.02469815	         10.27979206	         -7.11318377	          5.26677028	         10.93957550	         14.84400772	         28.78068399	          3.20945463	          4.55607217	        -12.73860051	          6.35381010	         -2.51577709	          0.24215854	         -5.23323461	          0.30692897	          1.50965846	         29.03050501	        -13.45022640	         15.75314926	         55.20749598	        -32.16178029	        -14.07662590	          4.19739641	         25.28518742	          0.24910949	          0.08068528	          0.04633268	          0.26347261	          0.18610864	          0.11654714	          0.01000166	          0.01000027	          0.01000020	          0.02642023	          0.07654722	          0.05416315	          0.01000111	          0.01000132	          0.01000291	          0.01000071	          0.28392243	          0.07854247	          0.01186078	          0.01555992	          0.01403064	          0.01000159	          0.17992749	          0.32030060	          0.01403977	          0.01404229	          0.04604544	          0.19820748	          0.01000055	          0.01000059	          0.01000051	          0.27891034	          0.31187332	          0.26315981	          0.23726569	          0.29138936	          0.35893220	          0.01130423	          0.01911363	          0.17713465	          0.01163010	          0.01110893	          0.01159439	          0.01779303	          0.01184705	          0.01000022	          0.01184955	          0.01184910	          0.01000512	          0.07638798	          0.01000321	          0.06170839	          0.01000041	          0.01570359	          0.08625533	          0.14804153	          0.18964469	          0.16224813	          0.09891091	          0.01000663	          0.02763125	          0.05611452	          0.01000050	          0.01000030	          0.05348113	          0.01708628	          0.01663554	          0.14418875	          0.01000114	          0.01000066	          0.01404024	          0.11613897	          0.10489754	          0.09985187	          0.01000001	          0.01000004	          0.01000000	          0.01000004	          0.01000037	          0.01000022	          0.30191305	          0.18447530	          0.11676190	          0.14018194	          0.32664782	          0.03925340	          0.01284411	          0.01184899	          0.03018814	          0.02455909	          0.01000017	          0.07882491	
          0.57688586	         -2.88501057	          0.48922786	         -2.85582054	          0.62895528	          0.81870008	          0.00129758	        -16.91992226	          1.80329815	         10.15182936	         -9.10426372	          4.24746194	         11.28721174	         15.93422570	         28.17603583	          3.63021835	          4.64530244	        -13.23160016	          5.30760038	         -2.63009200	          0.24348301	         -5.04471345	         -0.16916409	          1.56721655	         28.87672769	        -13.45384963	         15.71905254	         56.50159629	        -33.20377686	        -14.01509849	          4.30762469	         25.02143094	          0.21023701	          0.06809465	          0.03910264	          0.22235922	          0.15706714	          0.09836041	          0.01136619	          0.01000290	          0.01000296	          0.02229749	          0.06460243	          0.09978951	          0.03403973	          0.01184853	          0.01052385	          0.01012839	          0.23961747	          0.06629334	          0.01001366	          0.01313224	          0.01184194	          0.01000462	          0.15185052	          0.27031891	          0.01184900	          0.01185125	          0.03886024	          0.16727807	          0.01001056	          0.03091025	          0.02030280	          0.23538738	          0.26320664	          0.22476976	          0.21266852	          0.24591973	          0.30292286	          0.01000003	          0.01613159	          0.18529718	          0.01000014	          0.01000004	          0.01000021	          0.01501652	          0.01000013	          0.01010931	          0.01000056	          0.01000031	          0.01000052	          0.06446801	          0.07674164	          0.05207971	          0.01000139	          0.01325407	          0.07279581	          0.15471021	          0.16007879	          0.13693270	          0.08347684	          0.01000047	          0.02332176	          0.10555612	          0.01000839	          0.04502729	          0.05023050	          0.01442008	          0.01403986	          0.18143316	          0.01940399	          0.01136098	          0.01184938	          0.09801598	          0.08852874	          0.08427041	          0.01618486	          0.01663685	          0.01404010	          0.01348933	          0.01185057	          0.01505251	          0.25480064	          0.17705687	          0.12072548	          0.11830712	          0.34328611	          0.03312811	          0.02630659	          0.01000002	          0.03173169	          0.02072674	          0.01404000	          0.06652457	
          0.58797982	         -2.86491930	          0.73772180	         -2.98373502	          0.64415681	          0.81821122	          0.00104715	        -16.67147961	          1.58071369	         10.00434500	        -11.30940181	          3.01746122	         11.61149823	         16.98519541	         27.51947818	          4.02533615	          4.78571071	        -13.85282040	          4.17608879	         -2.73258019	          0.24264333	         -4.85146265	         -0.66952846	          1.61463236	         28.59117572	        -13.46138847	         15.66230661	         57.67257491	        -33.99636759	        -13.95141663	          4.61325603	         24.37858240	          0.22085306	          0.05746874	          0.03300082	          0.24833176	          0.13255749	          0.08301166	          0.01628601	          0.01000035	          0.01000026	          0.01881809	          0.05452158	          0.12508088	          0.02872852	          0.01000263	          0.01000479	          0.01000334	          0.20222629	          0.05594980	          0.01000085	          0.01108348	          0.01000095	          0.01000088	          0.12815488	          0.22814068	          0.01000018	          0.01000216	          0.03279625	          0.15575239	          0.02631232	          0.02608954	          0.01713635	          0.19865602	          0.22213420	          0.18969524	          0.17948284	          0.20754512	          0.25565306	          0.01000003	          0.04771011	          0.15638246	          0.01000028	          0.01000007	          0.01000023	          0.20382128	          0.22030931	          0.21140121	          0.17075576	          0.01187917	          0.01000097	          0.05440805	          0.06476696	          0.04395316	          0.01404067	          0.01118621	          0.06143643	          0.13056962	          0.13510015	          0.11556968	          0.09892221	          0.01000125	          0.01968349	          0.08908565	          0.17846277	          0.10867288	          0.07416458	          0.01216991	          0.01184910	          0.15312130	          0.01637634	          0.01000045	          0.01000038	          0.08272251	          0.07471468	          0.08316139	          0.01365928	          0.01404075	          0.01184920	          0.01138438	          0.01000139	          0.01270367	          0.38681422	          0.23693534	          0.12281372	          0.49312845	          0.41564024	          0.21883970	          0.05530515	          0.02609211	          0.02678008	          0.01749242	          0.01184913	          0.05614366	
